<svg xmlns="http://www.w3.org/2000/svg" viewBox="0 0 511.999 511.999">
    <path fill="currentColor" d="M476 120.004H286V10c0-5.522-4.477-10-10-10H36c-5.523 0-10 4.478-10 10v491.999c0 5.522 4.477 10 10 10h440c5.523 0 10-4.478 10-10V130.004c0-5.523-4.478-10-10-10zm-190 20h180v251.995H286zM126 491.999v-80h60v80zm70-100h-80c-5.523 0-10 4.478-10 10v90H46V20h220v471.999h-60v-90c0-5.522-4.478-10-10-10zm89.999 100v-80h180v80z"/>
    <path fill="currentColor" d="M145.999 80.001h19.997c5.523 0 10-4.477 10-10v-20c0-5.523-4.477-10-10-10h-19.997c-5.523 0-10 4.477-10 10v20c0 5.523 4.477 10 10 10zM145.999 150.001h19.997c5.523 0 10-4.477 10-10v-20c0-5.523-4.477-10-10-10h-19.997c-5.523 0-10 4.477-10 10v20c0 5.523 4.477 10 10 10zM145.999 220.001h19.997c5.523 0 10-4.477 10-10v-20c0-5.523-4.477-10-10-10h-19.997c-5.523 0-10 4.477-10 10v20c0 5.523 4.477 10 10 10zM145.999 290h19.997c5.523 0 10-4.477 10-10v-20c0-5.523-4.477-10-10-10h-19.997c-5.523 0-10 4.477-10 10v20c0 5.523 4.477 10 10 10zM145.999 360h19.997c5.523 0 10-4.477 10-10v-20c0-5.523-4.477-10-10-10h-19.997c-5.523 0-10 4.477-10 10v20c0 5.523 4.477 10 10 10zM76.001 80.001h19.997c5.523 0 10-4.477 10-10v-20c0-5.523-4.477-10-10-10H76.001c-5.523 0-10 4.477-10 10v20c0 5.523 4.477 10 10 10zM76.001 150.001h19.997c5.523 0 10-4.477 10-10v-20c0-5.523-4.477-10-10-10H76.001c-5.523 0-10 4.477-10 10v20c0 5.523 4.477 10 10 10zM76.001 220.001h19.997c5.523 0 10-4.477 10-10v-20c0-5.523-4.477-10-10-10H76.001c-5.523 0-10 4.477-10 10v20c0 5.523 4.477 10 10 10zM76.001 290h19.997c5.523 0 10-4.477 10-10v-20c0-5.523-4.477-10-10-10H76.001c-5.523 0-10 4.477-10 10v20c0 5.523 4.477 10 10 10zM76.001 360h19.997c5.523 0 10-4.477 10-10v-20c0-5.523-4.477-10-10-10H76.001c-5.523 0-10 4.477-10 10v20c0 5.523 4.477 10 10 10zM235.998 40.001h-19.997c-5.523 0-10 4.477-10 10v20c0 5.523 4.477 10 10 10h19.997c5.523 0 10-4.477 10-10v-20c0-5.523-4.477-10-10-10zM235.998 110h-19.997c-5.523 0-10 4.477-10 10v20c0 5.523 4.477 10 10 10h19.997c5.523 0 10-4.477 10-10v-20c0-5.522-4.477-10-10-10zM235.998 180h-19.997c-5.523 0-10 4.477-10 10v20c0 5.523 4.477 10 10 10h19.997c5.523 0 10-4.477 10-10v-20c0-5.522-4.477-10-10-10zM235.998 250h-19.997c-5.523 0-10 4.477-10 10v20c0 5.523 4.477 10 10 10h19.997c5.523 0 10-4.477 10-10v-20c0-5.522-4.477-10-10-10zM235.998 320h-19.997c-5.523 0-10 4.477-10 10v20c0 5.523 4.477 10 10 10h19.997c5.523 0 10-4.477 10-10v-20c0-5.523-4.477-10-10-10zM420.997 180H401c-5.523 0-10 4.477-10 10v20c0 5.523 4.477 10 10 10h19.997c5.523 0 10-4.477 10-10v-20c0-5.522-4.478-10-10-10zM420.997 250H401c-5.523 0-10 4.477-10 10v20c0 5.523 4.477 10 10 10h19.997c5.523 0 10-4.477 10-10v-20c0-5.522-4.478-10-10-10zM420.997 320H401c-5.523 0-10 4.477-10 10v20c0 5.523 4.477 10 10 10h19.997c5.523 0 10-4.477 10-10v-20c0-5.523-4.478-10-10-10zM350.999 180h-19.997c-5.523 0-10 4.477-10 10v20c0 5.523 4.477 10 10 10h19.997c5.523 0 10-4.477 10-10v-20c0-5.522-4.478-10-10-10zM350.999 250h-19.997c-5.523 0-10 4.477-10 10v20c0 5.523 4.477 10 10 10h19.997c5.523 0 10-4.477 10-10v-20c0-5.522-4.478-10-10-10zM350.999 320h-19.997c-5.523 0-10 4.477-10 10v20c0 5.523 4.477 10 10 10h19.997c5.523 0 10-4.477 10-10v-20c0-5.523-4.478-10-10-10z"/>
</svg>
