<svg xmlns="http://www.w3.org/2000/svg" xml:space="preserve" viewBox="0 0 512.864 512.864">
    <path fill="currentColor" d="M448.136 346.826c-4.268 9.112-6.641 13.168-10.778 20.208-17.728-4.877-50.836-11.665-74.385-14.851 1.463-8.129 1.699-8.486 3.666-20.785l.106-.772-11.632-38.619-2.008 16.452c-1.683 13.916-3.934 28.068-6.609 41.48-30.311-3.861-57.745-4.804-81.96-5.893v-20.663l-9.071-28.987c-9.023 34.457-7.308 22.971-7.535 49.536l-31.953.91c-19.704.951-37.912 2.593-51.625 4.341l-.244-1.26a561.713 561.713 0 0 1-6.292-40.139l-1.878-15.737-11.941 37.001.122.829c1.471 9.405 2.26 13.502 3.755 21.573-24.483 3.894-47.195 8.307-72.743 15.582-3.699-6.178-6.714-11.616-10.787-20.208l-.943-1.991H45.13l2.178 4.91c80.928 180.666 337.141 180.292 417.874-.016l2.17-4.91h-18.265l-.951 2.009zm-183.6 121.782V361.027c22.524.39 49.974 2.195 78.359 5.592-7.657 31.856-19.907 65.76-31.897 94.909-16.744 4.479-31.164 6.324-46.462 7.08zm68.345-14.192c2.585-8.129 17.631-44.057 26.548-85.643 20.769 2.861 42.951 7.007 68.101 12.949-24.97 33.888-56.42 57.282-94.649 72.694zm-154.784-.553c-36.912-15.176-67.947-38.107-93.235-72.328 18.655-5.121 43.659-10.413 66.484-13.68 6.56 29.726 15.696 57.908 26.751 86.008zm69.833-92.983V468.6c-15.908-.813-31.076-2.707-49.219-7.828-11.502-28.206-23.508-63.785-30.848-95.153 24.516-3.113 55.559-4.739 80.067-4.739zM478.871 203.974c-24.5-103.737-116.052-176.211-222.625-176.211-105.737 0-197.118 71.767-222.243 174.512l-.195.862 10.169 39.147 2.52-16.859c4.585-30.677 15.144-58.095 31.279-83.383 18.419 4.78 43.098 9.819 65.386 13.185-2.243 15.534-3.536 30.287-4.585 45.057h16.582c.959-13.656 2.414-29.45 4.373-42.724 29.369 4.024 59.265 6.048 88.39 6.657v36.075h16.623v-35.945c28.905-.171 58.753-1.878 87.073-5.69 1.829 12.876 3.048 25.532 3.991 38.399l.211 3.227h16.59l-.26-3.723c-1.203-16.989-2.951-32.197-4.178-40.326 19.915-3.04 47.438-8.868 66.606-14.379 16.127 25.735 26.954 52.876 31.531 84.383l2.333 16.119 10.648-37.473-.219-.91zm-54.397-76.49c-19.948 5.259-41.643 9.624-59.046 12.225-5.17-28.45-8.803-45.398-17.802-74.596 29.532 14.689 53.552 32.922 76.848 62.371zm-75.449 14.542c-27.881 3.601-57.884 5.357-84.488 5.357V44.573c21.451.894 41.935 4.755 62.037 11.86l.602.203.203.593c9.217 25.126 17.606 59.526 21.646 84.797zM163.1 66c-6.6 21.321-11.843 41.553-17.322 72.491-19.809-3.056-38.253-6.478-57.705-11.079C110.215 99.067 134.308 80.713 163.1 66zm20.516-8.787c18.696-6.982 40.724-11.648 64.313-12.632v102.672c-32.474-.829-57.306-2.78-85.756-6.438 4.967-28.255 11.803-56.965 21.443-83.602z"/>
    <path fill="currentColor" d="M70.881 273.579c3.942-12.112 7.454-23.768 10.242-37.302h.488c2.78 13.282 6.04 24.491 10.006 37.083l17.249 53.844h18.647l36.375-112.825h-20.281l-16.086 56.632c-3.739 13.306-6.755 25.199-8.641 36.619h-.683c-2.552-11.421-5.828-23.313-10.006-36.814l-17.517-56.429H73.442l-18.444 57.575c-3.715 12.128-7.454 24.239-10.006 35.668h-.723c-2.073-11.665-5.121-23.313-8.381-35.896l-14.916-57.355H0l34.026 112.825h18.655l18.2-53.625zM293.368 307.614h-.699c-2.552-11.413-5.828-23.313-10.023-36.814l-17.501-56.429h-17.208l-18.436 57.575c-3.723 12.128-7.478 24.248-10.031 35.668h-.691c-2.089-11.665-5.129-23.313-8.397-35.904l-14.94-57.339h-20.98l34.042 112.825h18.647l18.184-53.624c3.967-12.112 7.478-23.768 10.275-37.302h.447c2.812 13.282 6.08 24.491 10.031 37.083l17.216 53.844h18.679l36.384-112.825H318.07l-16.086 56.632c-3.722 13.297-6.746 25.197-8.616 36.61zM492.543 214.371l-16.086 56.632c-3.747 13.306-6.763 25.199-8.616 36.619h-.699c-2.552-11.421-5.82-23.313-10.031-36.814l-17.485-56.429h-17.224l-18.427 57.575c-3.723 12.128-7.47 24.239-10.023 35.668h-.715c-2.081-11.664-5.129-23.313-8.389-35.896l-14.916-57.347h-20.964l34.01 112.825h18.663l18.184-53.624c3.951-12.112 7.462-23.768 10.275-37.302h.471c2.796 13.282 6.056 24.491 10.014 37.091l17.224 53.836h18.655l36.4-112.825-20.321-.009z"/>
</svg>
